<?xml version="1.0" encoding="UTF-8" standalone="no"?>
<svg xmlns="http://www.w3.org/2000/svg" version="1.2" baseProfile="tiny" viewBox="0.00 0.00 200.00 200.00">
<path fill="#525463" d="
  M 200.00 0.00
  L 200.00 200.00
  L 0.00 200.00
  L 0.00 0.00
  L 200.00 0.00
  Z
  M 199.30 2.14
  A 0.92 0.92 0.0 0 0 198.38 1.22
  L 2.22 1.22
  A 0.92 0.92 0.0 0 0 1.30 2.14
  L 1.30 198.30
  A 0.92 0.92 0.0 0 0 2.22 199.22
  L 198.38 199.22
  A 0.92 0.92 0.0 0 0 199.30 198.30
  L 199.30 2.14
  Z"
/>
<path fill="#f07645" d="
  M 118.38 105.50
  L 95.11 78.17
  A 0.47 0.47 0.0 0 1 95.10 77.58
  L 125.02 38.00
  A 0.47 0.47 0.0 0 1 125.39 37.81
  L 169.33 37.81
  A 0.47 0.47 0.0 0 1 169.70 38.56
  L 119.11 105.48
  A 0.47 0.47 0.0 0 1 118.38 105.50
  Z"
/>
<path fill="#f07645" d="
  M 30.31 68.72
  A 0.34 0.34 0.0 0 1 30.57 68.17
  L 74.49 68.17
  A 2.33 2.29 -18.8 0 1 76.31 69.05
  L 149.31 161.27
  A 0.64 0.64 0.0 0 1 148.81 162.31
  L 105.89 162.31
  A 3.21 3.20 -19.1 0 1 103.38 161.10
  L 90.10 144.32
  A 0.73 0.73 0.0 0 0 88.95 144.33
  L 76.38 160.96
  A 3.37 3.35 -71.4 0 1 73.70 162.30
  L 31.09 162.30
  A 0.61 0.61 0.0 0 1 30.61 161.31
  Q 53.98 130.97 64.72 117.23
  Q 65.78 115.87 66.07 114.70
  A 1.25 1.22 34.0 0 0 65.85 113.62
  L 30.31 68.72
  Z"
/>
</svg>
